<?xml version="1.0" encoding="UTF-8"?>
<svg id="Layer_1" data-name="Layer 1" xmlns="http://www.w3.org/2000/svg" viewBox="0 0 210 210">
  <path d="M32.13,113.61c-.85-2.48.32-4.5,1.56-8.66,1.25-4.22,1.12-5.81,1.78-8.66,1.2-5.26,4.21-11.17,13.33-23.33,5.34-7.11,9.56-12.73,14.22-17.55,15.1-15.6,34.24-21.76,53.54-28.44,31.88-11.02,57.48-11.89,57.54-11.55.04.25-14.1,1.21-29.77,9.77-7.81,4.27-12.44,8.48-14.66,10.66-4.01,3.94-9.5,9.34-12.22,17.77-.45,1.41-.92,6.01-.95,6.23-.82,5.72-.75,6.32-1.27,9.09-.4,2.13-.95,5.03-2.26,8.65-.82,2.29-1.85,5.07-3.96,8.01-1.08,1.49-1.61,2.24-2.52,3.03-1.7,1.48-2.9,1.7-3.26,2.97-.26.92.03,2.01.67,2.67,1.29,1.32,3.87.65,5.33-.22,1.81-1.07,2.15-2.58,3.11-4,1.58-2.33,3.75-2.85,13.33-5.33,9.7-2.51,11.45-3.01,12.22-2,.91,1.19-.65,3-2.22,7.33-2.44,6.74-2.44,12.78-2.44,16.66,0,8.36,2.1,11.37.22,12.89-1.94,1.56-5.84-.31-12-3.33-9.63-4.73-15.31-9.61-16.22-8.66-.44.46.66,1.9,1.78,4.22,2.73,5.66,2.65,10.54,2.89,12.89,1.1,11.12,15.76,32.46,19.11,37.32,8.27,12.04,15.14,22.04,27.77,31.32,4.08,3,7.66,5.12,7.33,5.78-.76,1.54-21.62-6.98-33.77-14.44-5.62-3.46-11.12-7.62-11.12-7.62-3.28-2.49-5.58-4.46-6.33-5.12-.74-.64-2.01-1.81-4.54-4.15-3.21-2.96-4.32-4.31-6.7-6.67-1.35-1.34-1.91-1.84-8.18-7.55-3.26-2.96-6.96-5.5-9.77-8.89-3.91-4.7-6.82-8.21-11.55-10-4.08-1.54-8.61-1.47-9.11-.22-.29.72.92,1.4,2.22,4,.82,1.64.97,2.62,1.56,4.67,0,0,.6,2.09,2.67,7.33,1.81,4.6,7.8,11.84,17.11,17.33,10.92,6.44,20.51,6.99,20.44,7.33-.09.38-12.76.46-25.33-6.89-1.81-1.06-11.62-6.79-18.23-16.77-1.53-2.31-2.41-4.13-4.88-7-4.89-5.69-7.57-5.66-9.55-10-.49-1.07-.26-.38-2.67-3.55-1.76-2.32-4.05-5.33-7.08-9.05-1.81-2.21-2.71-3.32-3.58-4.28-2.67-2.94-3.17-2.89-3.55-4Z"/>
</svg>