<?xml version="1.0" encoding="UTF-8"?>
<svg id="Layer_1" data-name="Layer 1" xmlns="http://www.w3.org/2000/svg" viewBox="0 0 512 512">
  <path d="M68.21,272.62c-2.25-6.57.86-11.94,4.12-22.97,3.31-11.2,2.98-15.4,4.71-22.97,3.19-13.95,11.16-29.62,35.34-61.84,14.15-18.86,25.33-33.75,37.69-46.53,40.02-41.37,90.76-57.69,141.94-75.39,84.52-29.23,152.39-31.51,152.54-30.63.12.66-37.37,3.2-78.92,25.91-20.71,11.32-32.99,22.49-38.87,28.27-10.62,10.44-25.2,24.75-32.39,47.12-1.2,3.74-2.45,15.94-2.53,16.53-2.17,15.16-1.98,16.74-3.36,24.11-1.06,5.65-2.53,13.33-5.99,22.95-2.18,6.07-4.9,13.45-10.5,21.23-2.85,3.95-4.28,5.93-6.67,8.03-4.5,3.93-7.68,4.5-8.64,7.87-.69,2.43.07,5.34,1.77,7.07,3.43,3.49,10.25,1.71,14.14-.59,4.8-2.84,5.69-6.83,8.25-10.6,4.18-6.18,9.93-7.56,35.34-14.14,25.7-6.66,30.34-7.97,32.39-5.3,2.41,3.15-1.73,7.96-5.89,19.44-6.48,17.87-6.48,33.89-6.48,44.17,0,22.17,5.57,30.16.59,34.16-5.14,4.13-15.49-.82-31.8-8.83-25.54-12.55-40.59-25.48-42.99-22.97-1.18,1.23,1.75,5.04,4.71,11.19,7.23,15,7.04,27.94,7.66,34.16,2.93,29.48,41.79,86.05,50.65,98.95,21.92,31.91,40.14,58.43,73.62,83.04,10.81,7.95,20.31,13.56,19.44,15.31-2.03,4.07-57.32-18.5-89.52-38.28-14.91-9.16-29.48-20.2-29.48-20.2-8.71-6.6-14.79-11.83-16.79-13.57-1.96-1.7-5.32-4.8-12.04-10.99-8.51-7.85-11.46-11.43-17.77-17.69-3.57-3.55-5.07-4.89-21.69-20-8.64-7.85-18.45-14.58-25.91-23.56-10.36-12.47-18.08-21.76-30.63-26.5-10.81-4.09-22.82-3.91-24.15-.59-.76,1.9,2.43,3.7,5.89,10.6,2.18,4.35,2.57,6.95,4.12,12.37,0,0,1.58,5.53,7.07,19.44,4.81,12.19,20.67,31.38,45.35,45.94,28.96,17.08,54.38,18.54,54.18,19.44-.23,1.02-33.83,1.22-67.14-18.26-4.8-2.81-30.8-18.01-48.32-44.47-4.06-6.13-6.4-10.96-12.93-18.55-12.97-15.07-20.07-15.01-25.33-26.5-1.3-2.85-.68-1-7.07-9.42-4.67-6.16-10.73-14.14-18.77-23.98-4.8-5.87-7.19-8.81-9.5-11.35-7.07-7.8-8.42-7.66-9.42-10.6Z"/>
</svg>